<svg width="40" height="38" viewBox="0 0 40 38" fill="none" xmlns="http://www.w3.org/2000/svg">
<path d="M18 24.8279V33.9999H22V24.8279C22 23.7759 21.572 22.7439 20.828 21.9999L16.828 17.9999L22 12.8279L26 16.8279C26.744 17.5719 27.776 17.9999 28.828 17.9999H36V13.9999H28.828L21.414 6.58591C21.2284 6.40002 21.008 6.25255 20.7654 6.15193C20.5228 6.0513 20.2627 5.99951 20 5.99951C19.7373 5.99951 19.4772 6.0513 19.2346 6.15193C18.992 6.25255 18.7716 6.40002 18.586 6.58591L12 13.1719C11.244 13.9279 10.828 14.9319 10.828 15.9999C10.828 17.0679 11.244 18.0719 12 18.8279L18 24.8279Z" fill="#3E3939"/>
<path d="M28 8C30.2091 8 32 6.20914 32 4C32 1.79086 30.2091 0 28 0C25.7909 0 24 1.79086 24 4C24 6.20914 25.7909 8 28 8Z" fill="#3E3939"/>
<path d="M32 22C27.588 22 24 25.588 24 30C24 34.412 27.588 38 32 38C36.412 38 40 34.412 40 30C40 25.588 36.412 22 32 22ZM32 34C29.794 34 28 32.206 28 30C28 27.794 29.794 26 32 26C34.206 26 36 27.794 36 30C36 32.206 34.206 34 32 34ZM8 38C12.412 38 16 34.412 16 30C16 25.588 12.412 22 8 22C3.588 22 0 25.588 0 30C0 34.412 3.588 38 8 38ZM8 26C10.206 26 12 27.794 12 30C12 32.206 10.206 34 8 34C5.794 34 4 32.206 4 30C4 27.794 5.794 26 8 26Z" fill="#3E3939"/>
</svg>
