<svg width="16" height="21" viewBox="0 0 16 21" fill="none" xmlns="http://www.w3.org/2000/svg">
<path d="M8.00006 12.5C10.2061 12.5 12.0001 10.706 12.0001 8.5C12.0001 6.294 10.2061 4.5 8.00006 4.5C5.79406 4.5 4.00006 6.294 4.00006 8.5C4.00006 10.706 5.79406 12.5 8.00006 12.5ZM8.00006 6.5C9.10306 6.5 10.0001 7.397 10.0001 8.5C10.0001 9.603 9.10306 10.5 8.00006 10.5C6.89706 10.5 6.00006 9.603 6.00006 8.5C6.00006 7.397 6.89706 6.5 8.00006 6.5Z" fill="#3E3939"/>
<path d="M7.42009 20.314C7.58934 20.4349 7.79211 20.4998 8.00009 20.4998C8.20806 20.4998 8.41084 20.4349 8.58009 20.314C8.88409 20.099 16.0291 14.94 16.0001 8.5C16.0001 4.089 12.4111 0.5 8.00009 0.5C3.58909 0.5 8.80377e-05 4.089 8.80377e-05 8.495C-0.028912 14.94 7.11609 20.099 7.42009 20.314ZM8.00009 2.5C11.3091 2.5 14.0001 5.191 14.0001 8.505C14.0211 12.943 9.61209 16.928 8.00009 18.235C6.38909 16.927 1.97909 12.941 2.00009 8.5C2.00009 5.191 4.69109 2.5 8.00009 2.5Z" fill="#3E3939"/>
</svg>
