<svg width="26" height="26" viewBox="0 0 26 26" fill="none" xmlns="http://www.w3.org/2000/svg">
<path d="M19.6095 14.1905C19.4857 14.0665 19.3388 13.9682 19.177 13.9011C19.0153 13.834 18.8419 13.7995 18.6668 13.7995C18.4917 13.7995 18.3183 13.834 18.1565 13.9011C17.9948 13.9682 17.8478 14.0665 17.7241 14.1905L15.5988 16.3158C14.6135 16.0225 12.7748 15.3558 11.6095 14.1905C10.4441 13.0251 9.77745 11.1865 9.48412 10.2011L11.6095 8.07579C11.7334 7.95207 11.8317 7.80513 11.8988 7.64338C11.9659 7.48163 12.0004 7.30823 12.0004 7.13312C12.0004 6.95801 11.9659 6.78462 11.8988 6.62286C11.8317 6.46111 11.7334 6.31417 11.6095 6.19045L6.27612 0.857121C6.1524 0.733194 6.00546 0.634877 5.84371 0.567796C5.68196 0.500715 5.50856 0.466187 5.33345 0.466187C5.15834 0.466187 4.98495 0.500715 4.82319 0.567796C4.66144 0.634877 4.5145 0.733194 4.39079 0.857121L0.774786 4.47312C0.26812 4.97979 -0.0172139 5.67579 -0.00654721 6.38645C0.0241195 8.28512 0.526786 14.8798 5.72412 20.0771C10.9215 25.2745 17.5161 25.7758 19.4161 25.8078H19.4535C20.1575 25.8078 20.8228 25.5305 21.3268 25.0265L24.9428 21.4105C25.0667 21.2867 25.165 21.1398 25.2321 20.978C25.2992 20.8163 25.3337 20.6429 25.3337 20.4678C25.3337 20.2927 25.2992 20.1193 25.2321 19.9575C25.165 19.7958 25.0667 19.6488 24.9428 19.5251L19.6095 14.1905ZM19.4401 23.1398C17.7761 23.1118 12.0828 22.6651 7.60945 18.1905C3.12145 13.7025 2.68679 7.98912 2.66012 6.35845L5.33345 3.68512L8.78145 7.13312L7.05745 8.85712C6.90073 9.01372 6.78551 9.2069 6.72219 9.41921C6.65887 9.63152 6.64945 9.85626 6.69479 10.0731C6.72679 10.2265 7.50945 13.8625 9.72279 16.0758C11.9361 18.2891 15.5721 19.0718 15.7255 19.1038C15.9422 19.1504 16.1671 19.1417 16.3796 19.0786C16.5921 19.0154 16.7853 18.8999 16.9415 18.7425L18.6668 17.0185L22.1148 20.4665L19.4401 23.1398Z" fill="#3E3939"/>
</svg>
