<svg width="25" height="25" viewBox="0 0 25 25" fill="none" xmlns="http://www.w3.org/2000/svg">
<path fill-rule="evenodd" clip-rule="evenodd" d="M16.5 3.98853H8.5C5.73858 3.98853 3.5 6.22711 3.5 8.98853V16.9885C3.5 19.7499 5.73858 21.9885 8.5 21.9885H16.5C19.2614 21.9885 21.5 19.7499 21.5 16.9885V8.98853C21.5 6.22711 19.2614 3.98853 16.5 3.98853ZM19.75 16.9885C19.7445 18.7811 18.2926 20.233 16.5 20.2385H8.5C6.70735 20.233 5.25549 18.7811 5.25 16.9885V8.98853C5.25549 7.19588 6.70735 5.74402 8.5 5.73853H16.5C18.2926 5.74402 19.7445 7.19588 19.75 8.98853V16.9885ZM17.25 9.23853C17.8023 9.23853 18.25 8.79081 18.25 8.23853C18.25 7.68625 17.8023 7.23853 17.25 7.23853C16.6977 7.23853 16.25 7.68625 16.25 8.23853C16.25 8.79081 16.6977 9.23853 17.25 9.23853ZM12.5 8.48853C10.0147 8.48853 8 10.5032 8 12.9885C8 15.4738 10.0147 17.4885 12.5 17.4885C14.9853 17.4885 17 15.4738 17 12.9885C17.0027 11.7942 16.5294 10.6481 15.6849 9.80361C14.8404 8.95912 13.6943 8.48587 12.5 8.48853ZM9.75 12.9885C9.75 14.5073 10.9812 15.7385 12.5 15.7385C14.0188 15.7385 15.25 14.5073 15.25 12.9885C15.25 11.4697 14.0188 10.2385 12.5 10.2385C10.9812 10.2385 9.75 11.4697 9.75 12.9885Z" fill="#3E3939"/>
</svg>
