<svg width="39" height="40" viewBox="0 0 39 40" fill="none" xmlns="http://www.w3.org/2000/svg">
<path d="M37.73 0L35.3118 0.806045C31.1676 2.24593 26.7421 2.68779 22.395 2.09572C17.827 1.38682 13.1515 2.01676 8.93401 3.90932C6.6982 4.86135 4.73603 6.35751 3.22615 8.26158C1.71627 10.1656 0.706637 12.4171 0.289174 14.8111C-0.135476 17.1133 -0.0920369 19.4774 0.416899 21.7624C0.925834 24.0474 1.88984 26.2065 3.25139 28.1108C3.13048 28.534 3.00958 28.9572 2.90882 29.3804C2.09036 32.8605 1.68455 36.4249 1.69975 40H5.72998C5.9194 37.0737 6.31671 34.1646 6.9189 31.2947C9.71473 32.8044 12.8501 33.5744 16.0272 33.5315C18.9904 33.5295 21.9231 32.9333 24.6519 31.7783C39.9869 25.2292 37.9718 3.44584 37.9718 2.53904L37.73 0ZM23.0801 28.0705C17.8207 30.3073 11.5335 29.9244 8.00706 27.1637C8.60306 25.1708 9.42095 23.2512 10.4453 21.4408C11.2417 20.1379 12.1812 18.928 13.2464 17.8338C14.3347 16.7278 15.5605 15.7662 16.8937 14.9723C19.6485 13.325 22.7037 12.2427 25.8811 11.7884V9.7733C22.2253 9.64674 18.5918 10.3928 15.2816 11.9496C11.8971 13.6011 9.02675 16.144 6.97935 19.3048C6.21999 20.512 5.54662 21.7712 4.96424 23.073C4.03027 20.6838 3.76553 18.0851 4.19849 15.5567C4.48217 13.7865 5.21189 12.1176 6.3189 10.7074C7.4259 9.29724 8.87373 8.19212 10.5259 7.49622C12.9353 6.37009 15.5642 5.792 18.2237 5.80353C19.4731 5.80353 20.7023 5.92443 21.9919 6.02519C26.0309 6.5463 30.1317 6.30709 34.0826 5.3199C33.9416 10.8816 32.934 23.8791 23.0801 28.0705Z" fill="#3E3939"/>
</svg>
