<svg width="32" height="32" viewBox="0 0 32 32" fill="none" xmlns="http://www.w3.org/2000/svg">
<rect width="32" height="32" rx="16" fill="#E2DFD9" fill-opacity="0.3"/>
<path d="M8.22172 23.778C8.68559 24.2425 9.23669 24.6108 9.84334 24.8617C10.45 25.1126 11.1002 25.2411 11.7567 25.24C12.4133 25.2411 13.0637 25.1125 13.6705 24.8617C14.2774 24.6108 14.8286 24.2425 15.2927 23.778L18.1207 20.949L16.7067 19.535L13.8787 22.364C13.3152 22.925 12.5524 23.2399 11.7572 23.2399C10.962 23.2399 10.1992 22.925 9.63572 22.364C9.07422 21.8007 8.75892 21.0378 8.75892 20.2425C8.75892 19.4471 9.07422 18.6842 9.63572 18.121L12.4647 15.293L11.0507 13.879L8.22172 16.707C7.28552 17.6454 6.75977 18.9169 6.75977 20.2425C6.75977 21.568 7.28552 22.8395 8.22172 23.778ZM23.7777 15.293C24.7134 14.3542 25.2388 13.0829 25.2388 11.7575C25.2388 10.432 24.7134 9.16068 23.7777 8.22196C22.8393 7.28577 21.5678 6.76001 20.2422 6.76001C18.9166 6.76001 17.6452 7.28577 16.7067 8.22196L13.8787 11.051L15.2927 12.465L18.1207 9.63596C18.6842 9.07495 19.447 8.75999 20.2422 8.75999C21.0374 8.75999 21.8002 9.07495 22.3637 9.63596C22.9252 10.1992 23.2405 10.9621 23.2405 11.7575C23.2405 12.5528 22.9252 13.3157 22.3637 13.879L19.5347 16.707L20.9487 18.121L23.7777 15.293Z" fill="#3E3939"/>
<path d="M12.4637 20.95L11.0487 19.536L19.5357 11.05L20.9497 12.465L12.4637 20.95Z" fill="#3E3939"/>
</svg>
