<svg width="25" height="25" viewBox="0 0 25 25" fill="none" xmlns="http://www.w3.org/2000/svg">
<path fill-rule="evenodd" clip-rule="evenodd" d="M5 3.98853C4.17157 3.98853 3.5 4.6601 3.5 5.48853V20.4885C3.5 21.3169 4.17157 21.9885 5 21.9885H20C20.8284 21.9885 21.5 21.3169 21.5 20.4885V5.48853C21.5 4.6601 20.8284 3.98853 20 3.98853H5ZM9.02076 7.99125C9.02639 8.9475 8.31061 9.53672 7.46123 9.5325C6.66107 9.52828 5.96357 8.89125 5.96779 7.99266C5.97201 7.1475 6.63998 6.46828 7.50764 6.48797C8.38795 6.50766 9.02639 7.15313 9.02076 7.99125ZM12.7797 10.7503H10.2597H10.2583V19.3101H12.9217V19.1104C12.9217 18.7305 12.9214 18.3505 12.9211 17.9704C12.9203 16.9566 12.9194 15.9417 12.9246 14.9282C12.926 14.6821 12.9372 14.4262 13.0005 14.1913C13.2381 13.3138 14.0271 12.7471 14.9074 12.8864C15.4727 12.9749 15.8467 13.3026 16.0042 13.8356C16.1013 14.1688 16.1449 14.5274 16.1491 14.8748C16.1605 15.9224 16.1589 16.97 16.1573 18.0177C16.1567 18.3875 16.1561 18.7575 16.1561 19.1273V19.3087H18.828V19.1034C18.828 18.6514 18.8278 18.1995 18.8275 17.7476C18.827 16.6181 18.8264 15.4886 18.8294 14.3587C18.8308 13.8482 18.776 13.3448 18.6508 12.8512C18.4638 12.1171 18.0771 11.5096 17.4485 11.0709C17.0027 10.7587 16.5133 10.5576 15.9663 10.5351C15.904 10.5325 15.8412 10.5291 15.7781 10.5257C15.4984 10.5106 15.2141 10.4953 14.9467 10.5492C14.1817 10.7025 13.5096 11.0526 13.0019 11.6699C12.9429 11.7407 12.8852 11.8126 12.7991 11.9199L12.7797 11.9442V10.7503ZM6.18164 19.3129H8.83242V10.7559H6.18164V19.3129Z" fill="#3E3939"/>
</svg>
