<svg width="32" height="40" viewBox="0 0 32 40" fill="none" xmlns="http://www.w3.org/2000/svg">
<path d="M16.0002 24.0002C20.4123 24.0002 24.0003 20.4122 24.0003 16.0001C24.0003 11.5881 20.4123 8.00006 16.0002 8.00006C11.5882 8.00006 8.00019 11.5881 8.00019 16.0001C8.00019 20.4122 11.5882 24.0002 16.0002 24.0002ZM16.0002 12.0001C18.2063 12.0001 20.0003 13.7941 20.0003 16.0001C20.0003 18.2061 18.2063 20.0002 16.0002 20.0002C13.7942 20.0002 12.0002 18.2061 12.0002 16.0001C12.0002 13.7941 13.7942 12.0001 16.0002 12.0001Z" fill="#3E3939"/>
<path d="M14.8403 39.6283C15.1788 39.8701 15.5844 40 16.0003 40C16.4163 40 16.8218 39.8701 17.1603 39.6283C17.7683 39.1983 32.0584 28.8802 32.0004 16.0001C32.0004 7.17806 24.8224 0 16.0003 0C7.17823 0 0.000176077 7.17806 0.000176077 15.9901C-0.0578244 28.8802 14.2323 39.1983 14.8403 39.6283ZM16.0003 4.00003C22.6184 4.00003 28.0004 9.38208 28.0004 16.0101C28.0424 24.8862 19.2243 32.8563 16.0003 35.4703C12.7783 32.8543 3.95821 24.8822 4.00021 16.0001C4.00021 9.38208 9.38225 4.00003 16.0003 4.00003Z" fill="#3E3939"/>
</svg>
