<svg width="25" height="25" viewBox="0 0 25 25" fill="none" xmlns="http://www.w3.org/2000/svg">
<path d="M22.0931 7.94886C21.9792 7.52626 21.7566 7.14086 21.4475 6.83102C21.1383 6.52119 20.7534 6.29772 20.3311 6.18286C18.7651 5.75286 12.5001 5.74586 12.5001 5.74586C12.5001 5.74586 6.23609 5.73886 4.66909 6.14986C4.24701 6.27 3.86291 6.49663 3.55365 6.80799C3.2444 7.11935 3.02037 7.50498 2.90309 7.92786C2.49009 9.49386 2.48609 12.7419 2.48609 12.7419C2.48609 12.7419 2.48209 16.0059 2.89209 17.5559C3.12209 18.4129 3.79709 19.0899 4.65509 19.3209C6.23709 19.7509 12.4851 19.7579 12.4851 19.7579C12.4851 19.7579 18.7501 19.7649 20.3161 19.3549C20.7386 19.2402 21.1238 19.0172 21.4337 18.708C21.7436 18.3988 21.9675 18.0141 22.0831 17.5919C22.4971 16.0269 22.5001 12.7799 22.5001 12.7799C22.5001 12.7799 22.5201 9.51486 22.0931 7.94886ZM10.4961 15.7509L10.5011 9.75086L15.7081 12.7559L10.4961 15.7509Z" fill="#3E3939"/>
</svg>
